<?xml version="1.0" standalone="no"?>
<!DOCTYPE svg PUBLIC "-//W3C//DTD SVG 20010904//EN"
 "http://www.w3.org/TR/2001/REC-SVG-20010904/DTD/svg10.dtd">
<svg version="1.0" xmlns="http://www.w3.org/2000/svg"
 width="512.000000pt" height="512.000000pt" viewBox="0 0 512.000000 512.000000"
 preserveAspectRatio="xMidYMid meet">
<metadata>
Created by potrace 1.11, written by Peter Selinger 2001-2013
</metadata>
<g transform="translate(0.000000,512.000000) scale(0.100000,-0.100000)"
fill="#000000" stroke="none">
<path d="M969 4600 l-519 -519 0 -584 0 -584 -87 -18 c-49 -9 -99 -19 -113
-21 -100 -17 -236 -47 -243 -53 -4 -4 -6 -491 -5 -1082 l4 -1074 22 -74 c31
-101 77 -194 134 -268 56 -74 66 -85 138 -144 101 -84 194 -128 335 -159 76
-17 183 -18 1950 -17 l1870 2 72 22 c184 58 329 157 433 298 68 92 127 224
147 330 5 22 8 519 8 1105 l0 1065 -80 17 c-44 10 -96 20 -115 23 -20 3 -47 8
-60 11 -14 2 -62 12 -107 20 l-83 16 0 712 c-1 391 -3 736 -5 766 -13 178
-122 399 -255 517 -78 70 -241 163 -315 179 -142 32 -153 33 -1383 33 l-1224
1 -519 -520z"/>
</g>
</svg>
