<?xml version="1.0" standalone="no"?>
<!DOCTYPE svg PUBLIC "-//W3C//DTD SVG 20010904//EN"
 "http://www.w3.org/TR/2001/REC-SVG-20010904/DTD/svg10.dtd">
<svg version="1.0" xmlns="http://www.w3.org/2000/svg"
 width="320.000000pt" height="320.000000pt" viewBox="0 0 320.000000 320.000000"
 preserveAspectRatio="xMidYMid meet">
<metadata>
Created by potrace 1.11, written by Peter Selinger 2001-2013
</metadata>
<g transform="translate(0.000000,320.000000) scale(0.100000,-0.100000)"
fill="#000000" stroke="none">
<path d="M660 2510 l0 -260 -150 0 -150 0 2 -847 3 -848 23 -44 c35 -64 104
-127 168 -150 54 -21 70 -21 1019 -21 945 0 965 0 1019 20 72 27 139 88 173
158 l28 57 3 1098 2 1097 -1070 0 -1070 0 0 -260z m1978 -904 c-3 -997 -3
-1005 -24 -1032 -11 -15 -33 -37 -48 -48 -27 -21 -36 -21 -939 -24 -894 -2
-911 -2 -882 17 17 10 40 31 50 47 19 28 20 55 23 1037 l2 1007 910 0 910 0
-2 -1004z"/>
<path d="M970 2390 l0 -80 760 0 760 0 0 80 0 80 -760 0 -760 0 0 -80z"/>
<path d="M962 2123 l3 -38 763 -3 762 -2 0 40 0 40 -766 0 -765 0 3 -37z"/>
<path d="M970 1895 l0 -45 190 0 190 0 0 45 0 45 -190 0 -190 0 0 -45z"/>
<path d="M1500 1555 l0 -385 495 0 495 0 0 385 0 385 -495 0 -495 0 0 -385z"/>
<path d="M970 1675 l0 -45 190 0 190 0 0 45 0 45 -190 0 -190 0 0 -45z"/>
<path d="M970 1445 l0 -45 190 0 190 0 0 45 0 45 -190 0 -190 0 0 -45z"/>
<path d="M970 1215 l0 -45 190 0 190 0 0 45 0 45 -190 0 -190 0 0 -45z"/>
<path d="M970 985 l0 -45 760 0 760 0 0 45 0 45 -760 0 -760 0 0 -45z"/>
<path d="M970 760 l0 -40 760 0 760 0 0 40 0 40 -760 0 -760 0 0 -40z"/>
</g>
</svg>
